<?xml version="1.0"?>
<svg xmlns="http://www.w3.org/2000/svg" xmlns:xlink="http://www.w3.org/1999/xlink" xmlns:svgjs="http://svgjs.com/svgjs" version="1.1" width="512" height="512" x="0" y="0" viewBox="0 0 511.963 511.963" style="enable-background:new 0 0 512 512" xml:space="preserve" class=""><g><g xmlns="http://www.w3.org/2000/svg"><path d="m126.491 250.557h-96.491v-177.804c0-8.284-6.716-15-15-15s-15 6.716-15 15v366.457c0 8.284 6.716 15 15 15s15-6.716 15-15v-95.429h109.063v95.429c0 8.284 6.716 15 15 15s15-6.716 15-15v-146.081c0-23.475-19.098-42.572-42.572-42.572zm-96.491 63.224v-33.225h96.491c6.932 0 12.572 5.64 12.572 12.572v20.652h-109.063z" fill="#ffffff" data-original="#000000" style="" class=""/><path d="m496.963 57.753c-8.284 0-15 6.716-15 15v177.804h-94.256c-23.475 0-42.572 19.098-42.572 42.572v146.081c0 8.284 6.716 15 15 15s15-6.716 15-15v-95.429h106.829v95.429c0 8.284 6.716 15 15 15s15-6.716 15-15v-366.457c-.001-8.284-6.716-15-15.001-15zm-121.828 256.028v-20.652c0-6.932 5.64-12.572 12.572-12.572h94.256v33.225h-106.828z" fill="#ffffff" data-original="#000000" style="" class=""/><path d="m290.491 423.01h-18.678v-146.505l47.102-52.679h110.493c8.284 0 15-6.716 15-15v-56.5c0-8.284-6.716-15-15-15h-346.89c-8.284 0-15 6.716-15 15v56.498c0 8.284 6.716 15 15 15h111.372l47.923 52.75v146.436h-20.377c-8.284 0-15 6.716-15 15s6.716 15 15 15h69.056c8.284 0 15-6.716 15-15s-6.717-15-15.001-15zm123.918-229.184h-68.669l23.695-26.5h44.974zm-85.218-26.5-72.467 81.046-73.629-81.046zm-231.673 26.497v-26.498h45.045l24.073 26.498z" fill="#ffffff" data-original="#000000" style="" class=""/></g></g></svg>
